<svg xmlns="http://www.w3.org/2000/svg" width="216" height="144"><title>JSON Editor Icons</title><path fill="#1aae1c" d="M4 4h16v16H4z"/><path fill="#ec3f29" fill-opacity=".941" d="M28 4h16v16H28z"/><path fill="#4c4c4c" d="M52 4h16v16H52zM172 4h16v16h-16zM196 4h16v16h-16z"/><g fill="#fff"><path d="M7 11h10v2H7z"/><path d="M11 7h2v10h-2z"/></g><g fill="#fff"><path d="M31.757 14.828l7.07-7.07 1.416 1.414-7.07 7.07z"/><path d="M31.757 9.172l1.415-1.415 7.07 7.07-1.414 1.416z"/></g><path fill="#fff" d="M55 7h7v7h-7z"/><path fill="#fff" stroke="#4c4c4c" stroke-width="2" d="M58 10h7v7h-7z"/><path fill="#fff" d="M58 10h7v7h-7z"/><g fill="#fff"><path d="M198 11h8v2h-8zM198 7h12v2h-12zM198 15h4v2h-4z"/></g><g fill="#fff"><path d="M174 13h8v-2h-8zM174 17h12v-2h-12zM174 9h4V7h-4z"/></g><path fill="#4c4c4c" d="M76 4h16v16H76z"/><path d="M85.104 6.016l-.015 1.406c3.026-.24.33 3.65 2.483 4.578-2.187 1.094.492 4.907-2.453 4.578L85.105 18c5.708.56 1.032-5.1 4.703-5.265v-1.407c-3.613-.027 1.12-5.707-4.703-5.312zM82.78 5.998l.017 1.407c-3.027-.24-.33 3.65-2.485 4.578 2.187 1.094-.49 4.907 2.454 4.578l.015 1.423c-5.707.56-1.03-5.1-4.702-5.266V11.31c3.613-.026-1.12-5.706 4.703-5.312z" fill="#fff" stroke="#fff" stroke-width=".2"/><path fill="#4c4c4c" d="M100 4h16v16h-16z"/><path d="M103.72 5.672v12.72h3.03v-1.533h-1.344V7.233h1.375V5.672zM112.22 5.672v12.72h-3.033V16.86h1.344V7.235h-1.374V5.672z" fill="#fff"/><path fill="#4c4c4c" d="M124 4h16v16h-16z"/><path d="M126.282 17.603h1.79l1.14-2.864h5.655l1.15 2.863h1.764l-4.786-11.16h-1.92z" fill="#fff"/><path d="M129.727 13.48l4.61.01-2.306-5.55zM148 4h16v16h-16z" fill="#4c4c4c"/><path d="M156.477 5.892v2.18l.46 2.398h1.83l.397-2.4V5.893zM152.516 5.89v2.18l.46 2.4h1.83l.397-2.4V5.89z" fill="#fff"/><path fill="#d3d3d3" d="M4 28h16v16H4zM28 28h16v16H28zM52 28h16v16H52zM172 28h16v16h-16zM196 28h16v16h-16z"/><g fill="#fff"><path d="M7 35h10v2H7z"/><path d="M11 31h2v10h-2z"/></g><g fill="#fff"><path d="M31.757 38.828l7.07-7.07 1.416 1.414-7.07 7.07z"/><path d="M31.757 33.172l1.415-1.415 7.07 7.07-1.414 1.416z"/></g><path fill="#fff" d="M55 31h7v7h-7z"/><path fill="#fff" stroke="#d3d3d3" stroke-width="2" d="M58 34h7v7h-7z"/><path fill="#fff" d="M58 34h7v7h-7z"/><g fill="#fff"><path d="M198 35h8v2h-8zM198 31h12v2h-12zM198 39h4v2h-4z"/></g><g fill="#fff"><path d="M174 37h8v-2h-8zM174 41h12v-2h-12zM174 33h4v-2h-4z"/></g><path fill="#d3d3d3" d="M76 28h16v16H76z"/><path d="M85.104 30.016l-.015 1.406c3.026-.24.33 3.65 2.483 4.578-2.187 1.094.492 4.907-2.453 4.578L85.105 42c5.708.56 1.032-5.1 4.703-5.266v-1.406c-3.613-.027 1.12-5.707-4.703-5.312zM82.78 29.998l.017 1.407c-3.027-.24-.33 3.65-2.485 4.578 2.187 1.093-.49 4.907 2.454 4.578l.015 1.423c-5.707.56-1.03-5.1-4.702-5.266V35.31c3.613-.026-1.12-5.706 4.703-5.312z" fill="#fff" stroke="#fff" stroke-width=".2"/><path fill="#d3d3d3" d="M100 28h16v16h-16z"/><path d="M103.72 29.672v12.72h3.03v-1.533h-1.344v-9.626h1.375v-1.562zM112.22 29.672v12.72h-3.033v-1.533h1.344v-9.626h-1.374v-1.562z" fill="#fff"/><path fill="#d3d3d3" d="M124 28h16v16h-16z"/><path d="M126.282 41.603h1.79l1.14-2.864h5.655l1.15 2.863h1.764l-4.786-11.16h-1.92z" fill="#fff"/><path d="M129.727 37.48l4.61.01-2.306-5.55zM148 28h16v16h-16z" fill="#d3d3d3"/><path d="M156.477 29.892v2.18l.46 2.398h1.83l.397-2.4v-2.178zM152.516 29.89v2.18l.46 2.4h1.83l.397-2.4v-2.18z" fill="#fff"/><path fill="#4c4c4c" fill-opacity=".984" d="M54 64h12v2H54zM80 52h3v3h-3zM85 52h3v3h-3zM80 58h3v3h-3zM85 58h3v3h-3zM80 64h3v3h-3zM85 64h3v3h-3z"/><circle cx="110.061" cy="57.939" r="4.744" fill="none" stroke="#4c4c4c" stroke-width="2" stroke-linecap="round" stroke-linejoin="round"/><path fill="#4c4c4c" fill-opacity=".984" d="M104.966 59.997l2.99 2.99-4.528 4.53-2.99-2.99z"/><path d="M125 56l13.77.095L132 64zM149 64l13.77-.095L156 56z" fill="#4c4c4c" fill-rule="evenodd"/><path fill="#4c4c4c" fill-opacity=".984" d="M54 53h12v2H54z"/><path fill="#4c4c4c" fill-opacity=".984" d="M56 53v13h-2V53zM66 53v13h-2V53z"/><path fill="#4c4c4c" fill-opacity=".984" d="M54 57h12v1H54z"/><path fill="#d3d3d3" d="M54 88h12v2H54zM80 76h3v3h-3zM85 76h3v3h-3zM80 82h3v3h-3zM85 82h3v3h-3zM80 88h3v3h-3zM85 88h3v3h-3z"/><circle r="4.744" cy="81.939" cx="110.061" fill="none" stroke="#d3d3d3" stroke-width="2" stroke-linecap="round" stroke-linejoin="round"/><path fill="#d3d3d3" d="M104.965 83.997l2.99 2.99-4.528 4.53-2.99-2.99z"/><path d="M125 80l13.77.095L132 88zM149 88l13.77-.095L156 80z" fill="#d3d3d3" fill-rule="evenodd"/><path fill="#d3d3d3" d="M54 77h12v2H54z"/><path fill="#d3d3d3" d="M56 77v13h-2V77zM66 77v13h-2V77z"/><path fill="#d3d3d3" d="M54 81h12v1H54z"/><path fill="#fff" fill-opacity=".8" d="M76 101h16v2H76zM76 105h16v2H76zM76 109h9v2h-9zM76 125h12v2H76zM76 137h10v2H76zM82 129h10v2H82zM82 133h9v2h-9z"/><path style="line-height:normal;text-indent:0;text-align:start;text-decoration-line:none;text-decoration-style:solid;text-decoration-color:#000000;text-transform:none;block-progression:tb;isolation:auto;mix-blend-mode:normal" d="M36.398 100.025c-.423-.013-.846.01-1.265.062-1.657.22-3.245.974-4.508 2.227L29 100.6l-2.324 7.712 7.826-1.906-1.805-1.906c1.598-1.53 4.05-1.846 5.985-.72 1.97 1.144 2.882 3.396 2.308 5.55-.573 2.153-2.534 3.695-4.83 3.695v3.074c3.55 0 6.71-2.412 7.65-5.942.94-3.53-.618-7.274-3.71-9.07-1.16-.674-2.43-1.024-3.702-1.063zM59.723 99.963c-1.27.04-2.542.39-3.702 1.062-3.09 1.797-4.65 5.54-3.71 9.07.94 3.53 4.098 5.942 7.65 5.942v-3.074c-2.297 0-4.258-1.542-4.83-3.695-.574-2.154.336-4.406 2.307-5.55 1.936-1.126 4.39-.81 5.987.72l-1.807 1.906 7.828 1.906-2.324-7.713-1.626 1.717c-1.263-1.253-2.85-2.01-4.506-2.23-.418-.054-.842-.075-1.265-.06z" color="#000" font-family="sans-serif" white-space="normal" overflow="visible" opacity=".8" solid-color="#000000" fill="#fff"/><path d="M10.5 100v2H8l4 5 4-5h-2.5v-2h-3z" opacity=".8" fill="#fff"/><path d="M4.985 108.015l14.03-.03M4.985 132.015l14.03-.03" opacity=".8" fill="none" stroke="#fff" stroke-width="1.966" stroke-linecap="square"/><path style="line-height:normal;text-indent:0;text-align:start;text-decoration-line:none;text-decoration-style:solid;text-decoration-color:#000000;text-transform:none;block-progression:tb;isolation:auto;mix-blend-mode:normal" d="M36.398 123.963c-.423-.013-.846.01-1.265.062-1.657.22-3.245.974-4.508 2.226L29 124.54l-2.324 7.713 7.826-1.907-1.805-1.906c1.598-1.53 4.05-1.845 5.985-.72 1.97 1.145 2.882 3.397 2.308 5.55-.573 2.153-2.534 3.695-4.83 3.695v3.075c3.55 0 6.71-2.41 7.65-5.94.94-3.53-.618-7.275-3.71-9.072-1.16-.674-2.43-1.023-3.702-1.063zM59.723 123.963c-1.27.04-2.542.39-3.702 1.062-3.09 1.797-4.65 5.543-3.71 9.073.94 3.53 4.098 5.94 7.65 5.94v-3.075c-2.297 0-4.258-1.542-4.83-3.695-.574-2.154.336-4.406 2.307-5.55 1.936-1.126 4.39-.81 5.987.72l-1.807 1.906 7.828 1.906-2.324-7.713-1.626 1.717c-1.263-1.253-2.85-2.01-4.506-2.23-.418-.054-.842-.075-1.265-.06z" color="#000" font-family="sans-serif" white-space="normal" overflow="visible" opacity=".4" solid-color="#000000" fill="#4d4d4d"/><path d="M10.5 116v-2H8l4-5 4 5h-2.5v2h-3zM10.5 129v-2H8l4-5 4 5h-2.5v2h-3zM10.5 135v2H8l4 5 4-5h-2.5v-2h-3z" opacity=".8" fill="#fff"/><path d="M16.667 60.073l-3.833 2.214L9 64.5v-8.854l3.834 2.214zM31.5 60.073l3.834 2.214 3.833 2.213v-8.854l-3.833 2.214zM11.934 88.455L9.72 84.62 7.508 80.79h8.854L14.15 84.62zM35.927 79.333l-2.214 3.833L31.5 87h8.854l-2.214-3.834z" fill="#4d4d4d" fill-opacity=".902"/><path d="M171.826 65.174h16.348L180 51.826z" fill="#fbb917" fill-rule="evenodd" stroke="#fbb917" stroke-width="1.652" stroke-linejoin="round"/><path d="M179 55v6h2v-6M179 62v2h2v-2" fill="#fff" fill-rule="evenodd"/></svg>